<svg id="visual" viewBox="0 0 960 540" width="960" height="540" xmlns="http://www.w3.org/2000/svg" xmlns:xlink="http://www.w3.org/1999/xlink" version="1.1"><rect x="0" y="0" width="960" height="540" fill="#314773"></rect><path d="M0 311L107 399L213 315L320 375L427 311L533 326L640 297L747 362L853 394L960 295L960 0L853 0L747 0L640 0L533 0L427 0L320 0L213 0L107 0L0 0Z" fill="#ff0066"></path><path d="M0 289L107 294L213 294L320 264L427 285L533 246L640 338L747 306L853 233L960 207L960 0L853 0L747 0L640 0L533 0L427 0L320 0L213 0L107 0L0 0Z" fill="#d12989"></path><path d="M0 191L107 144L213 233L320 226L427 222L533 212L640 158L747 189L853 239L960 248L960 0L853 0L747 0L640 0L533 0L427 0L320 0L213 0L107 0L0 0Z" fill="#974297"></path><path d="M0 170L107 179L213 131L320 144L427 119L533 120L640 189L747 77L853 132L960 80L960 0L853 0L747 0L640 0L533 0L427 0L320 0L213 0L107 0L0 0Z" fill="#5d4a8e"></path><path d="M0 82L107 95L213 116L320 75L427 94L533 77L640 108L747 43L853 105L960 124L960 0L853 0L747 0L640 0L533 0L427 0L320 0L213 0L107 0L0 0Z" fill="#314773"></path></svg>