<svg id="visual" viewBox="0 0 960 540" width="960" height="540" xmlns="http://www.w3.org/2000/svg" xmlns:xlink="http://www.w3.org/1999/xlink" version="1.1"><rect x="0" y="0" width="960" height="540" fill="#314773"></rect><path d="M0 386L160 288L320 303L480 324L640 379L800 344L960 376L960 0L800 0L640 0L480 0L320 0L160 0L0 0Z" fill="#000000"></path><path d="M0 257L160 211L320 279L480 203L640 294L800 329L960 221L960 0L800 0L640 0L480 0L320 0L160 0L0 0Z" fill="#001339"></path><path d="M0 232L160 275L320 221L480 280L640 259L800 210L960 213L960 0L800 0L640 0L480 0L320 0L160 0L0 0Z" fill="#002047"></path><path d="M0 161L160 110L320 155L480 213L640 214L800 142L960 181L960 0L800 0L640 0L480 0L320 0L160 0L0 0Z" fill="#0e2c55"></path><path d="M0 70L160 71L320 71L480 113L640 152L800 141L960 85L960 0L800 0L640 0L480 0L320 0L160 0L0 0Z" fill="#213964"></path><path d="M0 94L160 47L320 40L480 37L640 21L800 97L960 29L960 0L800 0L640 0L480 0L320 0L160 0L0 0Z" fill="#314773"></path></svg>