<svg id="visual" viewBox="0 0 960 540" width="960" height="540" xmlns="http://www.w3.org/2000/svg" xmlns:xlink="http://www.w3.org/1999/xlink" version="1.1"><path d="M0 147L14.5 153.3C29 159.7 58 172.3 87.2 161.5C116.3 150.7 145.7 116.3 174.8 97.3C204 78.3 233 74.7 262 98C291 121.3 320 171.7 349 193.3C378 215 407 208 436.2 207.2C465.3 206.3 494.7 211.7 523.8 212.5C553 213.3 582 209.7 611 202.5C640 195.3 669 184.7 698 166.7C727 148.7 756 123.3 785.2 126.8C814.3 130.3 843.7 162.7 872.8 188.8C902 215 931 235 945.5 245L960 255L960 0L945.5 0C931 0 902 0 872.8 0C843.7 0 814.3 0 785.2 0C756 0 727 0 698 0C669 0 640 0 611 0C582 0 553 0 523.8 0C494.7 0 465.3 0 436.2 0C407 0 378 0 349 0C320 0 291 0 262 0C233 0 204 0 174.8 0C145.7 0 116.3 0 87.2 0C58 0 29 0 14.5 0L0 0Z" fill="#a2b5c9"></path><path d="M0 217L14.5 223.3C29 229.7 58 242.3 87.2 237.8C116.3 233.3 145.7 211.7 174.8 195.5C204 179.3 233 168.7 262 191.2C291 213.7 320 269.3 349 295.3C378 321.3 407 317.7 436.2 310.5C465.3 303.3 494.7 292.7 523.8 286.3C553 280 582 278 611 270.8C640 263.7 669 251.3 698 228C727 204.7 756 170.3 785.2 179.3C814.3 188.3 843.7 240.7 872.8 274C902 307.3 931 321.7 945.5 328.8L960 336L960 253L945.5 243C931 233 902 213 872.8 186.8C843.7 160.7 814.3 128.3 785.2 124.8C756 121.3 727 146.7 698 164.7C669 182.7 640 193.3 611 200.5C582 207.7 553 211.3 523.8 210.5C494.7 209.7 465.3 204.3 436.2 205.2C407 206 378 213 349 191.3C320 169.7 291 119.3 262 96C233 72.7 204 76.3 174.8 95.3C145.7 114.3 116.3 148.7 87.2 159.5C58 170.3 29 157.7 14.5 151.3L0 145Z" fill="#708ca5"></path><path d="M0 309L14.5 311.7C29 314.3 58 319.7 87.2 319.7C116.3 319.7 145.7 314.3 174.8 307.2C204 300 233 291 262 305.3C291 319.7 320 357.3 349 379.8C378 402.3 407 409.7 436.2 400.7C465.3 391.7 494.7 366.3 523.8 357.3C553 348.3 582 355.7 611 363.8C640 372 669 381 698 356.7C727 332.3 756 274.7 785.2 268.3C814.3 262 843.7 307 872.8 336.7C902 366.3 931 380.7 945.5 387.8L960 395L960 334L945.5 326.8C931 319.7 902 305.3 872.8 272C843.7 238.7 814.3 186.3 785.2 177.3C756 168.3 727 202.7 698 226C669 249.3 640 261.7 611 268.8C582 276 553 278 523.8 284.3C494.7 290.7 465.3 301.3 436.2 308.5C407 315.7 378 319.3 349 293.3C320 267.3 291 211.7 262 189.2C233 166.7 204 177.3 174.8 193.5C145.7 209.7 116.3 231.3 87.2 235.8C58 240.3 29 227.7 14.5 221.3L0 215Z" fill="#576e83"></path><path d="M0 482L14.5 482C29 482 58 482 87.2 480.2C116.3 478.3 145.7 474.7 174.8 471C204 467.3 233 463.7 262 467.2C291 470.7 320 481.3 349 486.7C378 492 407 492 436.2 484.8C465.3 477.7 494.7 463.3 523.8 462.5C553 461.7 582 474.3 611 481.5C640 488.7 669 490.3 698 489.5C727 488.7 756 485.3 785.2 480C814.3 474.7 843.7 467.3 872.8 471.8C902 476.3 931 492.7 945.5 500.8L960 509L960 393L945.5 385.8C931 378.7 902 364.3 872.8 334.7C843.7 305 814.3 260 785.2 266.3C756 272.7 727 330.3 698 354.7C669 379 640 370 611 361.8C582 353.7 553 346.3 523.8 355.3C494.7 364.3 465.3 389.7 436.2 398.7C407 407.7 378 400.3 349 377.8C320 355.3 291 317.7 262 303.3C233 289 204 298 174.8 305.2C145.7 312.3 116.3 317.7 87.2 317.7C58 317.7 29 312.3 14.5 309.7L0 307Z" fill="#708ca5"></path><path d="M0 541L14.5 541C29 541 58 541 87.2 541C116.3 541 145.7 541 174.8 541C204 541 233 541 262 541C291 541 320 541 349 541C378 541 407 541 436.2 541C465.3 541 494.7 541 523.8 541C553 541 582 541 611 541C640 541 669 541 698 541C727 541 756 541 785.2 541C814.3 541 843.7 541 872.8 541C902 541 931 541 945.5 541L960 541L960 507L945.5 498.8C931 490.7 902 474.3 872.8 469.8C843.7 465.3 814.3 472.7 785.2 478C756 483.3 727 486.7 698 487.5C669 488.3 640 486.7 611 479.5C582 472.3 553 459.7 523.8 460.5C494.7 461.3 465.3 475.7 436.2 482.8C407 490 378 490 349 484.7C320 479.3 291 468.7 262 465.2C233 461.7 204 465.3 174.8 469C145.7 472.7 116.3 476.3 87.2 478.2C58 480 29 480 14.5 480L0 480Z" fill="#a2b5c9"></path></svg>