<svg id="visual" viewBox="0 0 900 600" width="900" height="600" xmlns="http://www.w3.org/2000/svg" xmlns:xlink="http://www.w3.org/1999/xlink" version="1.1"><rect x="0" y="0" width="900" height="600" fill="#041421"></rect><path d="M0 313L9.3 291.5C18.7 270 37.3 227 56.2 207.8C75 188.7 94 193.3 112.8 231.7C131.7 270 150.3 342 169 338.7C187.7 335.3 206.3 256.7 225 220.3C243.7 184 262.3 190 281.2 186.2C300 182.3 319 168.7 337.8 182C356.7 195.3 375.3 235.7 394 284.2C412.7 332.7 431.3 389.3 450 389C468.7 388.7 487.3 331.3 506.2 320.2C525 309 544 344 562.8 345.2C581.7 346.3 600.3 313.7 619 294.3C637.7 275 656.3 269 675 262.8C693.7 256.7 712.3 250.3 731.2 232.8C750 215.3 769 186.7 787.8 200.5C806.7 214.3 825.3 270.7 844 280.8C862.7 291 881.3 255 890.7 237L900 219L900 601L890.7 601C881.3 601 862.7 601 844 601C825.3 601 806.7 601 787.8 601C769 601 750 601 731.2 601C712.3 601 693.7 601 675 601C656.3 601 637.7 601 619 601C600.3 601 581.7 601 562.8 601C544 601 525 601 506.2 601C487.3 601 468.7 601 450 601C431.3 601 412.7 601 394 601C375.3 601 356.7 601 337.8 601C319 601 300 601 281.2 601C262.3 601 243.7 601 225 601C206.3 601 187.7 601 169 601C150.3 601 131.7 601 112.8 601C94 601 75 601 56.2 601C37.3 601 18.7 601 9.3 601L0 601Z" fill="#314773" stroke-linecap="round" stroke-linejoin="miter"></path></svg>