<svg id="visual" viewBox="0 0 960 540" width="960" height="540" xmlns="http://www.w3.org/2000/svg" xmlns:xlink="http://www.w3.org/1999/xlink" version="1.1"><rect x="0" y="0" width="960" height="540" fill="#abb9fa"></rect><defs><linearGradient id="grad1_0" x1="43.8%" y1="0%" x2="100%" y2="100%"><stop offset="14.444444444444446%" stop-color="#abb9fa" stop-opacity="1"></stop><stop offset="85.55555555555554%" stop-color="#abb9fa" stop-opacity="1"></stop></linearGradient></defs><defs><linearGradient id="grad2_0" x1="0%" y1="0%" x2="56.3%" y2="100%"><stop offset="14.444444444444446%" stop-color="#abb9fa" stop-opacity="1"></stop><stop offset="85.55555555555554%" stop-color="#abb9fa" stop-opacity="1"></stop></linearGradient></defs><g transform="translate(960, 0)"><path d="M0 486C-55.1 460.8 -110.1 435.5 -172.6 416.7C-235.1 397.8 -305 385.3 -343.7 343.7C-382.3 302 -389.8 231.3 -408.4 169.1C-426.9 107 -456.4 53.5 -486 0L0 0Z" fill="#314773"></path></g><g transform="translate(0, 540)"><path d="M0 -486C70.2 -486.6 140.3 -487.2 186 -449C231.6 -410.8 252.8 -333.9 281.4 -281.4C310.1 -228.9 346.2 -200.9 381.6 -158C416.9 -115.2 451.5 -57.6 486 0L0 0Z" fill="#314773"></path></g></svg>