<svg id="visual" viewBox="0 0 960 540" width="960" height="540" xmlns="http://www.w3.org/2000/svg" xmlns:xlink="http://www.w3.org/1999/xlink" version="1.1"><rect x="0" y="0" width="960" height="540" fill="#001220"></rect><path d="M0 360L22.8 355C45.7 350 91.3 340 137 340C182.7 340 228.3 350 274 348.5C319.7 347 365.3 334 411.2 329.5C457 325 503 329 548.8 334.5C594.7 340 640.3 347 686 354.3C731.7 361.7 777.3 369.3 823 367C868.7 364.7 914.3 352.3 937.2 346.2L960 340L960 541L937.2 541C914.3 541 868.7 541 823 541C777.3 541 731.7 541 686 541C640.3 541 594.7 541 548.8 541C503 541 457 541 411.2 541C365.3 541 319.7 541 274 541C228.3 541 182.7 541 137 541C91.3 541 45.7 541 22.8 541L0 541Z" fill="#4e3add"></path><path d="M0 414L22.8 409.7C45.7 405.3 91.3 396.7 137 388.3C182.7 380 228.3 372 274 366.5C319.7 361 365.3 358 411.2 360.2C457 362.3 503 369.7 548.8 370C594.7 370.3 640.3 363.7 686 363.3C731.7 363 777.3 369 823 370.3C868.7 371.7 914.3 368.3 937.2 366.7L960 365L960 541L937.2 541C914.3 541 868.7 541 823 541C777.3 541 731.7 541 686 541C640.3 541 594.7 541 548.8 541C503 541 457 541 411.2 541C365.3 541 319.7 541 274 541C228.3 541 182.7 541 137 541C91.3 541 45.7 541 22.8 541L0 541Z" fill="#0c4ac1"></path><path d="M0 396L22.8 396.5C45.7 397 91.3 398 137 402.5C182.7 407 228.3 415 274 415.7C319.7 416.3 365.3 409.7 411.2 408.7C457 407.7 503 412.3 548.8 418.5C594.7 424.7 640.3 432.3 686 433.2C731.7 434 777.3 428 823 423C868.7 418 914.3 414 937.2 412L960 410L960 541L937.2 541C914.3 541 868.7 541 823 541C777.3 541 731.7 541 686 541C640.3 541 594.7 541 548.8 541C503 541 457 541 411.2 541C365.3 541 319.7 541 274 541C228.3 541 182.7 541 137 541C91.3 541 45.7 541 22.8 541L0 541Z" fill="#004e9d"></path><path d="M0 468L22.8 470.7C45.7 473.3 91.3 478.7 137 477.3C182.7 476 228.3 468 274 461.2C319.7 454.3 365.3 448.7 411.2 445.3C457 442 503 441 548.8 439.8C594.7 438.7 640.3 437.3 686 440.7C731.7 444 777.3 452 823 457C868.7 462 914.3 464 937.2 465L960 466L960 541L937.2 541C914.3 541 868.7 541 823 541C777.3 541 731.7 541 686 541C640.3 541 594.7 541 548.8 541C503 541 457 541 411.2 541C365.3 541 319.7 541 274 541C228.3 541 182.7 541 137 541C91.3 541 45.7 541 22.8 541L0 541Z" fill="#004871"></path><path d="M0 514L22.8 513.5C45.7 513 91.3 512 137 509.3C182.7 506.7 228.3 502.3 274 497.3C319.7 492.3 365.3 486.7 411.2 483.5C457 480.3 503 479.7 548.8 483.3C594.7 487 640.3 495 686 497.5C731.7 500 777.3 497 823 494.7C868.7 492.3 914.3 490.7 937.2 489.8L960 489L960 541L937.2 541C914.3 541 868.7 541 823 541C777.3 541 731.7 541 686 541C640.3 541 594.7 541 548.8 541C503 541 457 541 411.2 541C365.3 541 319.7 541 274 541C228.3 541 182.7 541 137 541C91.3 541 45.7 541 22.8 541L0 541Z" fill="#1a3a43"></path></svg>