<svg id="visual" viewBox="0 0 960 540" width="960" height="540" xmlns="http://www.w3.org/2000/svg" xmlns:xlink="http://www.w3.org/1999/xlink" version="1.1"><rect x="0" y="0" width="960" height="540" fill="#314773"></rect><path d="M0 339L137 339L137 309L274 309L274 248L411 248L411 320L549 320L549 323L686 323L686 268L823 268L823 262L960 262L960 298L960 541L960 541L823 541L823 541L686 541L686 541L549 541L549 541L411 541L411 541L274 541L274 541L137 541L137 541L0 541Z" fill="#000000"></path><path d="M0 313L137 313L137 393L274 393L274 359L411 359L411 343L549 343L549 383L686 383L686 417L823 417L823 342L960 342L960 360L960 541L960 541L823 541L823 541L686 541L686 541L549 541L549 541L411 541L411 541L274 541L274 541L137 541L137 541L0 541Z" fill="#03264e"></path><path d="M0 473L137 473L137 399L274 399L274 404L411 404L411 406L549 406L549 491L686 491L686 489L823 489L823 453L960 453L960 483L960 541L960 541L823 541L823 541L686 541L686 541L549 541L549 541L411 541L411 541L274 541L274 541L137 541L137 541L0 541Z" fill="#314773"></path></svg>