<svg id="visual" viewBox="0 0 960 540" width="960" height="540" xmlns="http://www.w3.org/2000/svg" xmlns:xlink="http://www.w3.org/1999/xlink" version="1.1"><g stroke-width="1" stroke-linejoin="bevel"><path d="M482.9 252L460.1 265L478.9 298.5Z" fill="#081c2c" stroke="#081c2c"></path><path d="M482.9 252L425.1 229.5L460.1 265Z" fill="#081c2c" stroke="#081c2c"></path><path d="M460.1 265L418.1 331.5L478.9 298.5Z" fill="#2a426a" stroke="#2a426a"></path><path d="M382.2 261L418.1 331.5L460.1 265Z" fill="#18314f" stroke="#18314f"></path><path d="M555.8 166.5L505.9 180.5L609.8 236Z" fill="#18314f" stroke="#18314f"></path><path d="M482.9 252L505.9 180.5L425.1 229.5Z" fill="#081c2c" stroke="#081c2c"></path><path d="M425.1 229.5L382.2 261L460.1 265Z" fill="#1d3758" stroke="#1d3758"></path><path d="M528.9 382L580.8 326.5L478.9 298.5Z" fill="#0f273d" stroke="#0f273d"></path><path d="M478.9 298.5L580.8 326.5L482.9 252Z" fill="#00101c" stroke="#00101c"></path><path d="M505.9 180.5L431.1 173L425.1 229.5Z" fill="#00101c" stroke="#00101c"></path><path d="M425.1 229.5L379.2 163.5L382.2 261Z" fill="#18314f" stroke="#18314f"></path><path d="M382.2 261L374.2 318.5L418.1 331.5Z" fill="#081c2c" stroke="#081c2c"></path><path d="M415.1 374L478.9 298.5L418.1 331.5Z" fill="#233c61" stroke="#233c61"></path><path d="M415.1 374L528.9 382L478.9 298.5Z" fill="#051624" stroke="#051624"></path><path d="M407.2 379L415.1 374L418.1 331.5Z" fill="#081c2c" stroke="#081c2c"></path><path d="M374.2 318.5L407.2 379L418.1 331.5Z" fill="#0b2134" stroke="#0b2134"></path><path d="M415.1 374L487.9 472.5L528.9 382Z" fill="#18314f" stroke="#18314f"></path><path d="M609.8 236L505.9 180.5L482.9 252Z" fill="#0f273d" stroke="#0f273d"></path><path d="M505.9 180.5L509.9 86.5L431.1 173Z" fill="#1d3758" stroke="#1d3758"></path><path d="M580.8 326.5L609.8 236L482.9 252Z" fill="#0b2134" stroke="#0b2134"></path><path d="M555.8 166.5L531.9 150L505.9 180.5Z" fill="#2a426a" stroke="#2a426a"></path><path d="M368.2 77.5L379.2 163.5L431.1 173Z" fill="#132c46" stroke="#132c46"></path><path d="M431.1 173L379.2 163.5L425.1 229.5Z" fill="#00101c" stroke="#00101c"></path><path d="M382.2 261L314.4 259L374.2 318.5Z" fill="#00101c" stroke="#00101c"></path><path d="M528.9 382L597.8 381L580.8 326.5Z" fill="#0f273d" stroke="#0f273d"></path><path d="M580.8 326.5L654.6 339.5L609.8 236Z" fill="#2a426a" stroke="#2a426a"></path><path d="M316.4 236.5L314.4 259L382.2 261Z" fill="#0f273d" stroke="#0f273d"></path><path d="M332.4 413L384.2 434.5L407.2 379Z" fill="#0f273d" stroke="#0f273d"></path><path d="M379.2 163.5L316.4 236.5L382.2 261Z" fill="#051624" stroke="#051624"></path><path d="M597.8 381L654.6 339.5L580.8 326.5Z" fill="#081c2c" stroke="#081c2c"></path><path d="M669.6 250L654.6 209.5L609.8 236Z" fill="#233c61" stroke="#233c61"></path><path d="M609.8 236L612.8 135L555.8 166.5Z" fill="#0b2134" stroke="#0b2134"></path><path d="M609.8 86.5L509.9 86.5L531.9 150Z" fill="#051624" stroke="#051624"></path><path d="M311.4 361.5L407.2 379L374.2 318.5Z" fill="#00101c" stroke="#00101c"></path><path d="M407.2 379L449.1 473.5L415.1 374Z" fill="#132c46" stroke="#132c46"></path><path d="M528.9 382L603.8 477.5L597.8 381Z" fill="#18314f" stroke="#18314f"></path><path d="M654.6 339.5L669.6 250L609.8 236Z" fill="#0b2134" stroke="#0b2134"></path><path d="M314.4 259L311.4 361.5L374.2 318.5Z" fill="#0b2134" stroke="#0b2134"></path><path d="M612.8 135L531.9 150L555.8 166.5Z" fill="#0b2134" stroke="#0b2134"></path><path d="M531.9 150L509.9 86.5L505.9 180.5Z" fill="#081c2c" stroke="#081c2c"></path><path d="M368.2 77.5L335.2 150L379.2 163.5Z" fill="#1d3758" stroke="#1d3758"></path><path d="M379.2 163.5L311.4 165L316.4 236.5Z" fill="#314773" stroke="#314773"></path><path d="M654.6 209.5L612.8 135L609.8 236Z" fill="#2a426a" stroke="#2a426a"></path><path d="M449.1 473.5L487.9 472.5L415.1 374Z" fill="#314773" stroke="#314773"></path><path d="M597.8 381L665.6 433L654.6 339.5Z" fill="#314773" stroke="#314773"></path><path d="M384.2 434.5L449.1 473.5L407.2 379Z" fill="#0b2134" stroke="#0b2134"></path><path d="M335.2 150L311.4 165L379.2 163.5Z" fill="#0b2134" stroke="#0b2134"></path><path d="M211.5 203.5L237.5 306.5L314.4 259Z" fill="#18314f" stroke="#18314f"></path><path d="M314.4 259L237.5 306.5L311.4 361.5Z" fill="#2a426a" stroke="#2a426a"></path><path d="M311.4 361.5L332.4 413L407.2 379Z" fill="#051624" stroke="#051624"></path><path d="M384.2 434.5L416.1 540L449.1 473.5Z" fill="#1d3758" stroke="#1d3758"></path><path d="M654.6 339.5L701.5 288L669.6 250Z" fill="#2a426a" stroke="#2a426a"></path><path d="M723.5 186.5L687.6 158L654.6 209.5Z" fill="#233c61" stroke="#233c61"></path><path d="M704.5 107L609.8 86.5L612.8 135Z" fill="#2a426a" stroke="#2a426a"></path><path d="M529.9 0L479.1 49.5L509.9 86.5Z" fill="#00101c" stroke="#00101c"></path><path d="M509.9 86.5L479.1 49.5L431.1 173Z" fill="#0f273d" stroke="#0f273d"></path><path d="M335.2 150L284.4 65.5L311.4 165Z" fill="#0b2134" stroke="#0b2134"></path><path d="M479.1 49.5L368.2 77.5L431.1 173Z" fill="#1d3758" stroke="#1d3758"></path><path d="M687.6 158L612.8 135L654.6 209.5Z" fill="#00101c" stroke="#00101c"></path><path d="M612.8 135L609.8 86.5L531.9 150Z" fill="#132c46" stroke="#132c46"></path><path d="M640.6 483.5L603.8 477.5L624.6 540Z" fill="#051624" stroke="#051624"></path><path d="M487.9 472.5L603.8 477.5L528.9 382Z" fill="#081c2c" stroke="#081c2c"></path><path d="M761.5 393L774.5 299.5L701.5 288Z" fill="#314773" stroke="#314773"></path><path d="M723.5 186.5L654.6 209.5L669.6 250Z" fill="#18314f" stroke="#18314f"></path><path d="M246.5 374L330.4 462.5L332.4 413Z" fill="#1d3758" stroke="#1d3758"></path><path d="M332.4 413L330.4 462.5L384.2 434.5Z" fill="#132c46" stroke="#132c46"></path><path d="M603.8 477.5L665.6 433L597.8 381Z" fill="#0f273d" stroke="#0f273d"></path><path d="M211.5 203.5L314.4 259L316.4 236.5Z" fill="#2a426a" stroke="#2a426a"></path><path d="M311.4 361.5L246.5 374L332.4 413Z" fill="#0b2134" stroke="#0b2134"></path><path d="M237.5 306.5L246.5 374L311.4 361.5Z" fill="#081c2c" stroke="#081c2c"></path><path d="M701.5 288L723.5 186.5L669.6 250Z" fill="#081c2c" stroke="#081c2c"></path><path d="M687.6 158L704.5 107L612.8 135Z" fill="#18314f" stroke="#18314f"></path><path d="M512.9 540L603.8 477.5L487.9 472.5Z" fill="#051624" stroke="#051624"></path><path d="M603.8 477.5L640.6 483.5L665.6 433Z" fill="#0f273d" stroke="#0f273d"></path><path d="M416.1 540L512.9 540L449.1 473.5Z" fill="#2a426a" stroke="#2a426a"></path><path d="M449.1 473.5L512.9 540L487.9 472.5Z" fill="#0b2134" stroke="#0b2134"></path><path d="M362.2 540L416.1 540L384.2 434.5Z" fill="#2a426a" stroke="#2a426a"></path><path d="M529.9 0L467.1 0L479.1 49.5Z" fill="#081c2c" stroke="#081c2c"></path><path d="M479.1 49.5L467.1 0L368.2 77.5Z" fill="#233c61" stroke="#233c61"></path><path d="M223.5 103L211.5 203.5L311.4 165Z" fill="#081c2c" stroke="#081c2c"></path><path d="M311.4 165L211.5 203.5L316.4 236.5Z" fill="#314773" stroke="#314773"></path><path d="M237.5 306.5L194.5 294L246.5 374Z" fill="#0b2134" stroke="#0b2134"></path><path d="M571.8 0L509.9 86.5L609.8 86.5Z" fill="#081c2c" stroke="#081c2c"></path><path d="M571.8 0L529.9 0L509.9 86.5Z" fill="#1d3758" stroke="#1d3758"></path><path d="M723.5 186.5L704.5 107L687.6 158Z" fill="#233c61" stroke="#233c61"></path><path d="M704.5 107L650.6 45.5L609.8 86.5Z" fill="#051624" stroke="#051624"></path><path d="M211.5 203.5L194.5 294L237.5 306.5Z" fill="#0b2134" stroke="#0b2134"></path><path d="M360.2 0L284.4 65.5L368.2 77.5Z" fill="#1d3758" stroke="#1d3758"></path><path d="M368.2 77.5L284.4 65.5L335.2 150Z" fill="#00101c" stroke="#00101c"></path><path d="M650.6 45.5L571.8 0L609.8 86.5Z" fill="#0b2134" stroke="#0b2134"></path><path d="M330.4 462.5L362.2 540L384.2 434.5Z" fill="#00101c" stroke="#00101c"></path><path d="M266.4 540L362.2 540L330.4 462.5Z" fill="#2a426a" stroke="#2a426a"></path><path d="M761.5 393L701.5 288L654.6 339.5Z" fill="#051624" stroke="#051624"></path><path d="M701.5 288L776.3 272L723.5 186.5Z" fill="#2a426a" stroke="#2a426a"></path><path d="M723.5 186.5L850.3 96L704.5 107Z" fill="#00101c" stroke="#00101c"></path><path d="M761.5 393L654.6 339.5L665.6 433Z" fill="#051624" stroke="#051624"></path><path d="M774.5 299.5L776.3 272L701.5 288Z" fill="#0b2134" stroke="#0b2134"></path><path d="M194.5 294L146.7 326.5L246.5 374Z" fill="#1d3758" stroke="#1d3758"></path><path d="M246.5 374L215.5 485.5L330.4 462.5Z" fill="#2a426a" stroke="#2a426a"></path><path d="M211.5 203.5L182.7 284L194.5 294Z" fill="#314773" stroke="#314773"></path><path d="M467.1 0L360.2 0L368.2 77.5Z" fill="#18314f" stroke="#18314f"></path><path d="M512.9 540L624.6 540L603.8 477.5Z" fill="#314773" stroke="#314773"></path><path d="M721.5 483.5L761.5 393L665.6 433Z" fill="#233c61" stroke="#233c61"></path><path d="M624.6 540L627.8 540L640.6 483.5Z" fill="#0f273d" stroke="#0f273d"></path><path d="M721.5 483.5L665.6 433L640.6 483.5Z" fill="#00101c" stroke="#00101c"></path><path d="M199.5 39.5L223.5 103L284.4 65.5Z" fill="#314773" stroke="#314773"></path><path d="M284.4 65.5L223.5 103L311.4 165Z" fill="#0f273d" stroke="#0f273d"></path><path d="M35.8 234L146.7 326.5L182.7 284Z" fill="#081c2c" stroke="#081c2c"></path><path d="M908.2 196.5L791.3 218.5L923.2 249Z" fill="#0f273d" stroke="#0f273d"></path><path d="M776.3 272L791.3 218.5L723.5 186.5Z" fill="#2a426a" stroke="#2a426a"></path><path d="M827.3 348.5L776.3 272L774.5 299.5Z" fill="#1d3758" stroke="#1d3758"></path><path d="M627.8 540L721.5 483.5L640.6 483.5Z" fill="#132c46" stroke="#132c46"></path><path d="M828.3 490.5L787.3 389L761.5 393Z" fill="#1d3758" stroke="#1d3758"></path><path d="M761.5 393L787.3 389L774.5 299.5Z" fill="#2a426a" stroke="#2a426a"></path><path d="M360.2 0L285.4 0L284.4 65.5Z" fill="#2a426a" stroke="#2a426a"></path><path d="M107.7 177.5L182.7 284L211.5 203.5Z" fill="#00101c" stroke="#00101c"></path><path d="M182.7 284L146.7 326.5L194.5 294Z" fill="#1d3758" stroke="#1d3758"></path><path d="M159.7 435L215.5 485.5L246.5 374Z" fill="#081c2c" stroke="#081c2c"></path><path d="M215.5 485.5L266.4 540L330.4 462.5Z" fill="#0b2134" stroke="#0b2134"></path><path d="M745.5 37.5L693.6 0L650.6 45.5Z" fill="#233c61" stroke="#233c61"></path><path d="M650.6 45.5L693.6 0L571.8 0Z" fill="#233c61" stroke="#233c61"></path><path d="M745.5 37.5L650.6 45.5L704.5 107Z" fill="#0f273d" stroke="#0f273d"></path><path d="M878.2 444.5L827.3 348.5L787.3 389Z" fill="#1d3758" stroke="#1d3758"></path><path d="M787.3 389L827.3 348.5L774.5 299.5Z" fill="#051624" stroke="#051624"></path><path d="M850.3 96L745.5 37.5L704.5 107Z" fill="#18314f" stroke="#18314f"></path><path d="M751.5 0L745.5 37.5L779.3 0Z" fill="#0f273d" stroke="#0f273d"></path><path d="M146.7 326.5L159.7 435L246.5 374Z" fill="#233c61" stroke="#233c61"></path><path d="M215.5 485.5L198.5 540L266.4 540Z" fill="#132c46" stroke="#132c46"></path><path d="M627.8 540L734.5 540L721.5 483.5Z" fill="#132c46" stroke="#132c46"></path><path d="M721.5 483.5L828.3 490.5L761.5 393Z" fill="#132c46" stroke="#132c46"></path><path d="M285.4 0L199.5 39.5L284.4 65.5Z" fill="#132c46" stroke="#132c46"></path><path d="M223.5 103L111.7 135L211.5 203.5Z" fill="#081c2c" stroke="#081c2c"></path><path d="M74.8 432L158.7 463.5L159.7 435Z" fill="#0b2134" stroke="#0b2134"></path><path d="M159.7 435L158.7 463.5L215.5 485.5Z" fill="#1d3758" stroke="#1d3758"></path><path d="M199.5 39.5L155.7 81.5L223.5 103Z" fill="#1d3758" stroke="#1d3758"></path><path d="M853.2 165L723.5 186.5L791.3 218.5Z" fill="#00101c" stroke="#00101c"></path><path d="M745.5 37.5L751.5 0L693.6 0Z" fill="#051624" stroke="#051624"></path><path d="M111.7 135L107.7 177.5L211.5 203.5Z" fill="#233c61" stroke="#233c61"></path><path d="M146.7 326.5L74.8 346.5L159.7 435Z" fill="#1d3758" stroke="#1d3758"></path><path d="M186.7 540L198.5 540L215.5 485.5Z" fill="#2a426a" stroke="#2a426a"></path><path d="M908.2 196.5L853.2 165L791.3 218.5Z" fill="#0f273d" stroke="#0f273d"></path><path d="M155.7 81.5L111.7 135L223.5 103Z" fill="#00101c" stroke="#00101c"></path><path d="M158.7 463.5L186.7 540L215.5 485.5Z" fill="#132c46" stroke="#132c46"></path><path d="M199.5 39.5L128.7 0L155.7 81.5Z" fill="#2a426a" stroke="#2a426a"></path><path d="M70.8 103.5L92.8 142L111.7 135Z" fill="#314773" stroke="#314773"></path><path d="M285.4 0L188.5 0L199.5 39.5Z" fill="#132c46" stroke="#132c46"></path><path d="M837.3 53.5L779.3 0L745.5 37.5Z" fill="#0f273d" stroke="#0f273d"></path><path d="M734.5 540L828.3 490.5L721.5 483.5Z" fill="#314773" stroke="#314773"></path><path d="M923.2 249L791.3 218.5L776.3 272Z" fill="#233c61" stroke="#233c61"></path><path d="M70.8 103.5L111.7 135L155.7 81.5Z" fill="#0f273d" stroke="#0f273d"></path><path d="M111.7 135L92.8 142L107.7 177.5Z" fill="#0f273d" stroke="#0f273d"></path><path d="M35.8 234L74.8 346.5L146.7 326.5Z" fill="#00101c" stroke="#00101c"></path><path d="M853.2 165L850.3 96L723.5 186.5Z" fill="#1d3758" stroke="#1d3758"></path><path d="M35.8 234L182.7 284L107.7 177.5Z" fill="#0b2134" stroke="#0b2134"></path><path d="M158.7 463.5L103.8 540L186.7 540Z" fill="#081c2c" stroke="#081c2c"></path><path d="M850.3 96L837.3 53.5L745.5 37.5Z" fill="#0f273d" stroke="#0f273d"></path><path d="M92.8 142L73.8 172.5L107.7 177.5Z" fill="#00101c" stroke="#00101c"></path><path d="M734.5 540L814.3 540L828.3 490.5Z" fill="#1d3758" stroke="#1d3758"></path><path d="M905.2 540L878.2 444.5L828.3 490.5Z" fill="#314773" stroke="#314773"></path><path d="M828.3 490.5L878.2 444.5L787.3 389Z" fill="#233c61" stroke="#233c61"></path><path d="M853.2 165L898.2 88.5L850.3 96Z" fill="#233c61" stroke="#233c61"></path><path d="M923.2 249L776.3 272L827.3 348.5Z" fill="#0b2134" stroke="#0b2134"></path><path d="M850.3 96L898.2 88.5L837.3 53.5Z" fill="#314773" stroke="#314773"></path><path d="M72.8 434.5L74.8 432L0 402Z" fill="#0b2134" stroke="#0b2134"></path><path d="M74.8 346.5L74.8 432L159.7 435Z" fill="#2a426a" stroke="#2a426a"></path><path d="M0 402L74.8 432L74.8 346.5Z" fill="#00101c" stroke="#00101c"></path><path d="M74.8 432L72.8 434.5L158.7 463.5Z" fill="#18314f" stroke="#18314f"></path><path d="M920.2 375.5L923.2 249L827.3 348.5Z" fill="#132c46" stroke="#132c46"></path><path d="M92.8 142L70.8 103.5L73.8 172.5Z" fill="#00101c" stroke="#00101c"></path><path d="M73.8 172.5L35.8 234L107.7 177.5Z" fill="#081c2c" stroke="#081c2c"></path><path d="M128.7 0L70.8 103.5L155.7 81.5Z" fill="#00101c" stroke="#00101c"></path><path d="M0 248L35.8 234L0 175.5Z" fill="#051624" stroke="#051624"></path><path d="M188.5 0L128.7 0L199.5 39.5Z" fill="#18314f" stroke="#18314f"></path><path d="M878.2 444.5L920.2 375.5L827.3 348.5Z" fill="#0b2134" stroke="#0b2134"></path><path d="M960 117L898.2 88.5L908.2 196.5Z" fill="#233c61" stroke="#233c61"></path><path d="M908.2 196.5L898.2 88.5L853.2 165Z" fill="#2a426a" stroke="#2a426a"></path><path d="M837.3 53.5L925.2 0L779.3 0Z" fill="#0b2134" stroke="#0b2134"></path><path d="M905.2 540L911.2 433L878.2 444.5Z" fill="#314773" stroke="#314773"></path><path d="M878.2 444.5L911.2 433L920.2 375.5Z" fill="#051624" stroke="#051624"></path><path d="M72.8 434.5L103.8 540L158.7 463.5Z" fill="#081c2c" stroke="#081c2c"></path><path d="M960 316.5L923.2 249L920.2 375.5Z" fill="#051624" stroke="#051624"></path><path d="M960 316.5L960 300L923.2 249Z" fill="#132c46" stroke="#132c46"></path><path d="M923.2 249L960 176.5L908.2 196.5Z" fill="#18314f" stroke="#18314f"></path><path d="M960 439L960 316.5L920.2 375.5Z" fill="#233c61" stroke="#233c61"></path><path d="M0 175.5L35.8 234L73.8 172.5Z" fill="#0b2134" stroke="#0b2134"></path><path d="M35.8 234L0 335.5L74.8 346.5Z" fill="#132c46" stroke="#132c46"></path><path d="M72.8 434.5L0 540L103.8 540Z" fill="#314773" stroke="#314773"></path><path d="M0 248L0 335.5L35.8 234Z" fill="#00101c" stroke="#00101c"></path><path d="M960 300L960 176.5L923.2 249Z" fill="#0f273d" stroke="#0f273d"></path><path d="M0 111L0 175.5L73.8 172.5Z" fill="#051624" stroke="#051624"></path><path d="M0 111L73.8 172.5L70.8 103.5Z" fill="#2a426a" stroke="#2a426a"></path><path d="M0 335.5L0 402L74.8 346.5Z" fill="#314773" stroke="#314773"></path><path d="M814.3 540L905.2 540L828.3 490.5Z" fill="#081c2c" stroke="#081c2c"></path><path d="M911.2 433L960 439L920.2 375.5Z" fill="#0f273d" stroke="#0f273d"></path><path d="M960 176.5L960 117L908.2 196.5Z" fill="#2a426a" stroke="#2a426a"></path><path d="M898.2 88.5L925.2 0L837.3 53.5Z" fill="#18314f" stroke="#18314f"></path><path d="M960 456.5L960 439L911.2 433Z" fill="#1d3758" stroke="#1d3758"></path><path d="M0 46.5L0 111L70.8 103.5Z" fill="#2a426a" stroke="#2a426a"></path><path d="M905.2 540L960 456.5L911.2 433Z" fill="#051624" stroke="#051624"></path><path d="M0 402L0 451.5L72.8 434.5Z" fill="#051624" stroke="#051624"></path><path d="M128.7 0L48.8 0L70.8 103.5Z" fill="#132c46" stroke="#132c46"></path><path d="M960 43.5L925.2 0L898.2 88.5Z" fill="#0f273d" stroke="#0f273d"></path><path d="M960 117L960 43.5L898.2 88.5Z" fill="#233c61" stroke="#233c61"></path><path d="M48.8 0L0 46.5L70.8 103.5Z" fill="#051624" stroke="#051624"></path><path d="M905.2 540L960 540L960 456.5Z" fill="#081c2c" stroke="#081c2c"></path><path d="M0 451.5L0 540L72.8 434.5Z" fill="#081c2c" stroke="#081c2c"></path><path d="M960 43.5L960 0L925.2 0Z" fill="#233c61" stroke="#233c61"></path><path d="M48.8 0L0 0L0 46.5Z" fill="#0f273d" stroke="#0f273d"></path></g></svg>