<svg id="visual" viewBox="0 0 960 540" width="960" height="540" xmlns="http://www.w3.org/2000/svg" xmlns:xlink="http://www.w3.org/1999/xlink" version="1.1"><path d="M0 168L14.5 164.5C29 161 58 154 87.2 150.5C116.3 147 145.7 147 174.8 135.3C204 123.7 233 100.3 262 90.3C291 80.3 320 83.7 349 99.8C378 116 407 145 436.2 146C465.3 147 494.7 120 523.8 122.7C553 125.3 582 157.7 611 178.3C640 199 669 208 698 196.3C727 184.7 756 152.3 785.2 136.2C814.3 120 843.7 120 872.8 115.5C902 111 931 102 945.5 97.5L960 93L960 0L945.5 0C931 0 902 0 872.8 0C843.7 0 814.3 0 785.2 0C756 0 727 0 698 0C669 0 640 0 611 0C582 0 553 0 523.8 0C494.7 0 465.3 0 436.2 0C407 0 378 0 349 0C320 0 291 0 262 0C233 0 204 0 174.8 0C145.7 0 116.3 0 87.2 0C58 0 29 0 14.5 0L0 0Z" fill="#314773"></path><path d="M0 239L14.5 230C29 221 58 203 87.2 199.3C116.3 195.7 145.7 206.3 174.8 202.7C204 199 233 181 262 166.7C291 152.3 320 141.7 349 158.8C378 176 407 221 436.2 227.2C465.3 233.3 494.7 200.7 523.8 200.7C553 200.7 582 233.3 611 260.3C640 287.3 669 308.7 698 297.8C727 287 756 244 785.2 218C814.3 192 843.7 183 872.8 170.3C902 157.7 931 141.3 945.5 133.2L960 125L960 91L945.5 95.5C931 100 902 109 872.8 113.5C843.7 118 814.3 118 785.2 134.2C756 150.3 727 182.7 698 194.3C669 206 640 197 611 176.3C582 155.7 553 123.3 523.8 120.7C494.7 118 465.3 145 436.2 144C407 143 378 114 349 97.8C320 81.7 291 78.3 262 88.3C233 98.3 204 121.7 174.8 133.3C145.7 145 116.3 145 87.2 148.5C58 152 29 159 14.5 162.5L0 166Z" fill="#001e45"></path><path d="M0 341L14.5 324C29 307 58 273 87.2 275.7C116.3 278.3 145.7 317.7 174.8 314C204 310.3 233 263.7 262 246.7C291 229.7 320 242.3 349 264C378 285.7 407 316.3 436.2 319C465.3 321.7 494.7 296.3 523.8 296.3C553 296.3 582 321.7 611 338.8C640 356 669 365 698 365C727 365 756 356 785.2 343.3C814.3 330.7 843.7 314.3 872.8 297.2C902 280 931 262 945.5 253L960 244L960 123L945.5 131.2C931 139.3 902 155.7 872.8 168.3C843.7 181 814.3 190 785.2 216C756 242 727 285 698 295.8C669 306.7 640 285.3 611 258.3C582 231.3 553 198.7 523.8 198.7C494.7 198.7 465.3 231.3 436.2 225.2C407 219 378 174 349 156.8C320 139.7 291 150.3 262 164.7C233 179 204 197 174.8 200.7C145.7 204.3 116.3 193.7 87.2 197.3C58 201 29 219 14.5 228L0 237Z" fill="#000000"></path><path d="M0 390L14.5 372.8C29 355.7 58 321.3 87.2 324.8C116.3 328.3 145.7 369.7 174.8 372.3C204 375 233 339 262 322C291 305 320 307 349 321.5C378 336 407 363 436.2 370.2C465.3 377.3 494.7 364.7 523.8 363.7C553 362.7 582 373.3 611 386.8C640 400.3 669 416.7 698 415.8C727 415 756 397 785.2 383.5C814.3 370 843.7 361 872.8 353.8C902 346.7 931 341.3 945.5 338.7L960 336L960 242L945.5 251C931 260 902 278 872.8 295.2C843.7 312.3 814.3 328.7 785.2 341.3C756 354 727 363 698 363C669 363 640 354 611 336.8C582 319.7 553 294.3 523.8 294.3C494.7 294.3 465.3 319.7 436.2 317C407 314.3 378 283.7 349 262C320 240.3 291 227.7 262 244.7C233 261.7 204 308.3 174.8 312C145.7 315.7 116.3 276.3 87.2 273.7C58 271 29 305 14.5 322L0 339Z" fill="#001e45"></path><path d="M0 541L14.5 541C29 541 58 541 87.2 541C116.3 541 145.7 541 174.8 541C204 541 233 541 262 541C291 541 320 541 349 541C378 541 407 541 436.2 541C465.3 541 494.7 541 523.8 541C553 541 582 541 611 541C640 541 669 541 698 541C727 541 756 541 785.2 541C814.3 541 843.7 541 872.8 541C902 541 931 541 945.5 541L960 541L960 334L945.5 336.7C931 339.3 902 344.7 872.8 351.8C843.7 359 814.3 368 785.2 381.5C756 395 727 413 698 413.8C669 414.7 640 398.3 611 384.8C582 371.3 553 360.7 523.8 361.7C494.7 362.7 465.3 375.3 436.2 368.2C407 361 378 334 349 319.5C320 305 291 303 262 320C233 337 204 373 174.8 370.3C145.7 367.7 116.3 326.3 87.2 322.8C58 319.3 29 353.7 14.5 370.8L0 388Z" fill="#314773"></path></svg>