<svg id="visual" viewBox="0 0 960 540" width="960" height="540" xmlns="http://www.w3.org/2000/svg" xmlns:xlink="http://www.w3.org/1999/xlink" version="1.1"><path d="M0 93L87 168L175 185L262 125L349 168L436 163L524 87L611 152L698 120L785 131L873 109L960 93L960 0L873 0L785 0L698 0L611 0L524 0L436 0L349 0L262 0L175 0L87 0L0 0Z" fill="#314773"></path><path d="M0 320L87 293L175 303L262 298L349 320L436 282L524 303L611 309L698 325L785 363L873 320L960 266L960 91L873 107L785 129L698 118L611 150L524 85L436 161L349 166L262 123L175 183L87 166L0 91Z" fill="#0f253f"></path><path d="M0 352L87 357L175 347L262 336L349 374L436 374L524 336L611 363L698 390L785 395L873 368L960 298L960 264L873 318L785 361L698 323L611 307L524 301L436 280L349 318L262 296L175 301L87 291L0 318Z" fill="#001122"></path><path d="M0 460L87 422L175 438L262 428L349 417L436 433L524 384L611 460L698 476L785 455L873 433L960 417L960 296L873 366L785 393L698 388L611 361L524 334L436 372L349 372L262 334L175 345L87 355L0 350Z" fill="#0f253f"></path><path d="M0 541L87 541L175 541L262 541L349 541L436 541L524 541L611 541L698 541L785 541L873 541L960 541L960 415L873 431L785 453L698 474L611 458L524 382L436 431L349 415L262 426L175 436L87 420L0 458Z" fill="#314773"></path></svg>