<svg id="visual" viewBox="0 0 960 540" width="960" height="540" xmlns="http://www.w3.org/2000/svg" xmlns:xlink="http://www.w3.org/1999/xlink" version="1.1"><path d="M0 255L14.5 248.7C29 242.3 58 229.7 87.2 221.5C116.3 213.3 145.7 209.7 174.8 202.5C204 195.3 233 184.7 262 172.2C291 159.7 320 145.3 349 143.5C378 141.7 407 152.3 436.2 146C465.3 139.7 494.7 116.3 523.8 109.2C553 102 582 111 611 112.8C640 114.7 669 109.3 698 121.8C727 134.3 756 164.7 785.2 162.8C814.3 161 843.7 127 872.8 116.3C902 105.7 931 118.3 945.5 124.7L960 131L960 0L945.5 0C931 0 902 0 872.8 0C843.7 0 814.3 0 785.2 0C756 0 727 0 698 0C669 0 640 0 611 0C582 0 553 0 523.8 0C494.7 0 465.3 0 436.2 0C407 0 378 0 349 0C320 0 291 0 262 0C233 0 204 0 174.8 0C145.7 0 116.3 0 87.2 0C58 0 29 0 14.5 0L0 0Z" fill="#596c95"></path><path d="M0 314L14.5 310.5C29 307 58 300 87.2 295.5C116.3 291 145.7 289 174.8 279C204 269 233 251 262 237.5C291 224 320 215 349 216C378 217 407 228 436.2 226.2C465.3 224.3 494.7 209.7 523.8 210.5C553 211.3 582 227.7 611 230.5C640 233.3 669 222.7 698 226.3C727 230 756 248 785.2 242.5C814.3 237 843.7 208 872.8 204.3C902 200.7 931 222.3 945.5 233.2L960 244L960 129L945.5 122.7C931 116.3 902 103.7 872.8 114.3C843.7 125 814.3 159 785.2 160.8C756 162.7 727 132.3 698 119.8C669 107.3 640 112.7 611 110.8C582 109 553 100 523.8 107.2C494.7 114.3 465.3 137.7 436.2 144C407 150.3 378 139.7 349 141.5C320 143.3 291 157.7 262 170.2C233 182.7 204 193.3 174.8 200.5C145.7 207.7 116.3 211.3 87.2 219.5C58 227.7 29 240.3 14.5 246.7L0 253Z" fill="#2d426b"></path><path d="M0 406L14.5 401.5C29 397 58 388 87.2 385.3C116.3 382.7 145.7 386.3 174.8 391.7C204 397 233 404 262 401.3C291 398.7 320 386.3 349 381.8C378 377.3 407 380.7 436.2 386C465.3 391.3 494.7 398.7 523.8 401.5C553 404.3 582 402.7 611 402.7C640 402.7 669 404.3 698 405.2C727 406 756 406 785.2 402.3C814.3 398.7 843.7 391.3 872.8 387.7C902 384 931 384 945.5 384L960 384L960 242L945.5 231.2C931 220.3 902 198.7 872.8 202.3C843.7 206 814.3 235 785.2 240.5C756 246 727 228 698 224.3C669 220.7 640 231.3 611 228.5C582 225.7 553 209.3 523.8 208.5C494.7 207.7 465.3 222.3 436.2 224.2C407 226 378 215 349 214C320 213 291 222 262 235.5C233 249 204 267 174.8 277C145.7 287 116.3 289 87.2 293.5C58 298 29 305 14.5 308.5L0 312Z" fill="#233554"></path><path d="M0 476L14.5 470.7C29 465.3 58 454.7 87.2 452C116.3 449.3 145.7 454.7 174.8 454.7C204 454.7 233 449.3 262 446.7C291 444 320 444 349 447.5C378 451 407 458 436.2 458.8C465.3 459.7 494.7 454.3 523.8 458C553 461.7 582 474.3 611 472.5C640 470.7 669 454.3 698 449.8C727 445.3 756 452.7 785.2 458.2C814.3 463.7 843.7 467.3 872.8 467.3C902 467.3 931 463.7 945.5 461.8L960 460L960 382L945.5 382C931 382 902 382 872.8 385.7C843.7 389.3 814.3 396.7 785.2 400.3C756 404 727 404 698 403.2C669 402.3 640 400.7 611 400.7C582 400.7 553 402.3 523.8 399.5C494.7 396.7 465.3 389.3 436.2 384C407 378.7 378 375.3 349 379.8C320 384.3 291 396.7 262 399.3C233 402 204 395 174.8 389.7C145.7 384.3 116.3 380.7 87.2 383.3C58 386 29 395 14.5 399.5L0 404Z" fill="#2d426b"></path><path d="M0 541L14.5 541C29 541 58 541 87.2 541C116.3 541 145.7 541 174.8 541C204 541 233 541 262 541C291 541 320 541 349 541C378 541 407 541 436.2 541C465.3 541 494.7 541 523.8 541C553 541 582 541 611 541C640 541 669 541 698 541C727 541 756 541 785.2 541C814.3 541 843.7 541 872.8 541C902 541 931 541 945.5 541L960 541L960 458L945.5 459.8C931 461.7 902 465.3 872.8 465.3C843.7 465.3 814.3 461.7 785.2 456.2C756 450.7 727 443.3 698 447.8C669 452.3 640 468.7 611 470.5C582 472.3 553 459.7 523.8 456C494.7 452.3 465.3 457.7 436.2 456.8C407 456 378 449 349 445.5C320 442 291 442 262 444.7C233 447.3 204 452.7 174.8 452.7C145.7 452.7 116.3 447.3 87.2 450C58 452.7 29 463.3 14.5 468.7L0 474Z" fill="#596c95"></path></svg>