<svg id="visual" viewBox="0 0 1080 720" width="1080" height="720" xmlns="http://www.w3.org/2000/svg" xmlns:xlink="http://www.w3.org/1999/xlink" version="1.1"><rect x="0" y="0" width="1080" height="720" fill="#072331"></rect><path d="M0 592L25.7 560.7C51.3 529.3 102.7 466.7 154.2 461.8C205.7 457 257.3 510 308.8 518C360.3 526 411.7 489 463 461.7C514.3 434.3 565.7 416.7 617 439.7C668.3 462.7 719.7 526.3 771.2 537.7C822.7 549 874.3 508 925.8 490.8C977.3 473.7 1028.7 480.3 1054.3 483.7L1080 487L1080 721L1054.3 721C1028.7 721 977.3 721 925.8 721C874.3 721 822.7 721 771.2 721C719.7 721 668.3 721 617 721C565.7 721 514.3 721 463 721C411.7 721 360.3 721 308.8 721C257.3 721 205.7 721 154.2 721C102.7 721 51.3 721 25.7 721L0 721Z" fill="#092650" stroke-linecap="round" stroke-linejoin="miter"></path></svg>